<svg id="Layer_1" data-name="Layer 1" xmlns="http://www.w3.org/2000/svg" viewBox="0 0 109.88 24.75"><defs><style>.cls-1{fill:#6d6e71;}.cls-2{fill:#27aae1;}</style></defs><text x="-162" y="-218.69"/><path class="cls-1" d="M176.71,236.15v1.45c0,2,.64,3.08,2.17,3.08s2.06-1.32,2.06-3.33c0-2.68-.58-3.61-3.14-5.62s-3.93-3.29-3.93-6.85c0-3.11.94-6.2,5-6.19s4.87,2.85,4.87,5.64v1.22h-3.2v-1.13c0-1.81-.32-2.94-1.73-2.94s-1.75,1.22-1.75,2.93c0,1.93.37,2.77,2.52,4.37,3.49,2.6,4.57,4.08,4.57,8.1,0,3.39-1.09,6.56-5.4,6.56s-5.3-2.71-5.3-5.88v-1.41Z" transform="translate(-162 -218.69)"/><path class="cls-1" d="M186.61,219.06h4.81c5.14,0,6.14,2.88,6.14,7.07v9.34c0,3.68-.61,7.63-6.21,7.63h-4.74Zm3.22,21.28h1.3c2.64,0,3.14-1.6,3.14-4.37V225.83c0-2.45-.43-4-3.14-4h-1.3Z" transform="translate(-162 -218.69)"/><path class="cls-1" d="M202.71,236.15v1.45c0,2,.64,3.08,2.16,3.08s2.07-1.32,2.07-3.33c0-2.68-.59-3.61-3.15-5.62s-3.93-3.29-3.93-6.85c0-3.11.94-6.2,5-6.19s4.87,2.85,4.87,5.64v1.22h-3.19v-1.13c0-1.81-.33-2.94-1.74-2.94s-1.75,1.22-1.75,2.93c0,1.93.37,2.77,2.52,4.37,3.49,2.6,4.58,4.08,4.58,8.1,0,3.39-1.1,6.56-5.41,6.56s-5.3-2.71-5.3-5.88v-1.41Z" transform="translate(-162 -218.69)"/><path class="cls-1" d="M218.48,232.14v3h-6.31v-3Z" transform="translate(-162 -218.69)"/><path class="cls-2" d="M221.8,222.05h-3.88v-3h11v3H225v21H221.8Z" transform="translate(-162 -218.69)"/><path class="cls-2" d="M228.68,230.88c0-3,0-4.49,0-6.28h3.07c0,.41.09,1.85.09,3a4,4,0,0,1,4-3.22v4c-2.19,0-3.91.87-3.91,4.48V243.1h-3.22Z" transform="translate(-162 -218.69)"/><path class="cls-2" d="M246.76,239.56c0,1.2,0,2.9.08,3.54h-3c-.08-.39-.19-1.13-.22-1.42a3.06,3.06,0,0,1-3,1.71c-2.73,0-3.83-2.49-3.83-5.31v-.32c0-4.41,2.87-5.73,6.19-5.73h.58v-2.6c0-1.54-.22-2.46-1.47-2.46s-1.55.95-1.55,2.23v.38h-3.18v-.33c0-2.64,1-4.94,4.84-4.94,3.42,0,4.57,2,4.57,4.87Zm-3.14-5.05h-.74c-1.85,0-3,.74-3,3.2v.3c0,1.45.49,2.55,1.77,2.55s2-1.07,2-3.68Z" transform="translate(-162 -218.69)"/><path class="cls-2" d="M250,230.28c0-3.74,0-4.81,0-5.68h3.08a13.59,13.59,0,0,1,.12,1.75,3.41,3.41,0,0,1,3.4-2c2.16,0,3.74,1.28,3.74,4.74v14H257.1V229.66c0-1.72-.58-2.44-1.73-2.44-1.41,0-2.12.73-2.12,3.65V243.1H250Z" transform="translate(-162 -218.69)"/><path class="cls-2" d="M262.36,240.91l5.9-13.37h-5.38V224.6h8.94v2.26l-5.73,13.3h5.79l-.28,2.94h-9.24Z" transform="translate(-162 -218.69)"/></svg>